<svg xmlns="http://www.w3.org/2000/svg" viewBox="0 0 360 96" role="img" aria-label="Balai Besar Kerajinan dan Batik">
  <title>Balai Besar Kerajinan dan Batik</title>
  <text x="0" y="34" font-family="Segoe UI, Arial, Helvetica, sans-serif" font-size="24" font-weight="600" fill="#2f4f78">Balai Besar</text>
  <text x="0" y="66" font-family="Segoe UI, Arial, Helvetica, sans-serif" font-size="20" font-weight="600" fill="#2f4f78">Kerajinan dan Batik</text>
  <g transform="translate(292 48)">
    <circle r="44" fill="#a61c2b" stroke="#ffffff" stroke-width="2.5"/>
    <circle r="38" fill="none" stroke="#ffffff" stroke-width="1.2" opacity="0.95"/>
    <path fill="#ffffff" d="M-18 10c8-10 18-16 28-14 6 1 10 6 8 12-2 7-12 10-20 8-6-1-11-4-16-6z"/>
    <path fill="#ffffff" d="M-8-18c10-2 18 2 24 10 4 6 2 14-4 18-8 5-18 2-24-6-4-6-4-14 4-22z"/>
    <path fill="none" stroke="#ffffff" stroke-width="3.2" stroke-linecap="round" d="M8 18c10-4 16-12 18-22"/>
    <path fill="none" stroke="#ffffff" stroke-width="2.4" stroke-linecap="round" d="M10 20c8-2 14-8 16-16"/>
  </g>
</svg>
