<svg xmlns="http://www.w3.org/2000/svg" viewBox="0 0 226 226" role="img" aria-label="Logo BBKB">
  <title>Logo BBKB</title>
  <circle cx="113" cy="113" r="108" fill="#a61c2b" stroke="#ffffff" stroke-width="4"/>
  <circle cx="113" cy="113" r="96" fill="none" stroke="#ffffff" stroke-width="2" opacity="0.95"/>
  <path fill="#ffffff" d="M58 132c18-22 40-36 64-32 14 2 24 12 20 26-4 16-24 24-44 20-12-2-24-8-40-14z"/>
  <path fill="#ffffff" d="M78 58c22-4 40 4 54 22 8 12 4 28-8 36-18 12-40 4-52-14-8-12-8-28 6-44z"/>
  <path fill="none" stroke="#ffffff" stroke-width="7" stroke-linecap="round" d="M132 168c22-8 36-26 40-48"/>
  <path fill="none" stroke="#ffffff" stroke-width="5" stroke-linecap="round" d="M136 172c18-4 30-16 34-32"/>
</svg>
